<?xml version="1.0" encoding="UTF-8" standalone="no"?>
<!DOCTYPE svg PUBLIC "-//W3C//DTD SVG 1.1//EN"
 "http://www.w3.org/Graphics/SVG/1.1/DTD/svg11.dtd">
<!-- Generated by graphviz version 2.43.0 (0)
 -->
<!-- Title: Arquitectura TFM Pages: 1 -->
<svg width="1162pt" height="999pt"
 viewBox="0.00 0.00 1162.00 999.00" xmlns="http://www.w3.org/2000/svg" xmlns:xlink="http://www.w3.org/1999/xlink">
<g id="graph0" class="graph" transform="scale(1 1) rotate(0) translate(144 855)">
<title>Arquitectura TFM</title>
<polygon fill="white" stroke="transparent" points="-144,144 -144,-855 1018,-855 1018,144 -144,144"/>
<text text-anchor="middle" x="437" y="-9" font-family="Sans-Serif" font-size="15.00" fill="#2d3436">Arquitectura TFM</text>
<g id="clust1" class="cluster">
<title>cluster_Local</title>
<path fill="#e5f5fd" stroke="#aeb6be" d="M28,-472C28,-472 121,-472 121,-472 127,-472 133,-478 133,-484 133,-484 133,-691 133,-691 133,-697 127,-703 121,-703 121,-703 28,-703 28,-703 22,-703 16,-697 16,-691 16,-691 16,-484 16,-484 16,-478 22,-472 28,-472"/>
<text text-anchor="middle" x="40" y="-689.4" font-family="Sans-Serif" font-size="12.00" fill="#2d3436">Local</text>
</g>
<g id="clust2" class="cluster">
<title>cluster_customer</title>
<path fill="#e5f5fd" stroke="#aeb6be" d="M761,-260C761,-260 854,-260 854,-260 860,-260 866,-266 866,-272 866,-272 866,-423 866,-423 866,-429 860,-435 854,-435 854,-435 761,-435 761,-435 755,-435 749,-429 749,-423 749,-423 749,-272 749,-272 749,-266 755,-260 761,-260"/>
<text text-anchor="middle" x="786" y="-421.4" font-family="Sans-Serif" font-size="12.00" fill="#2d3436">customer</text>
</g>
<g id="clust3" class="cluster">
<title>cluster_descriptive analytics</title>
<path fill="#e5f5fd" stroke="#aeb6be" d="M20,-252C20,-252 384,-252 384,-252 390,-252 396,-258 396,-264 396,-264 396,-452 396,-452 396,-458 390,-464 384,-464 384,-464 20,-464 20,-464 14,-464 8,-458 8,-452 8,-452 8,-264 8,-264 8,-258 14,-252 20,-252"/>
<text text-anchor="middle" x="77" y="-450.4" font-family="Sans-Serif" font-size="12.00" fill="#2d3436">descriptive analytics</text>
</g>
<g id="clust4" class="cluster">
<title>cluster_Edge</title>
<path fill="#ebf3e7" stroke="#aeb6be" d="M28,-260C28,-260 376,-260 376,-260 382,-260 388,-266 388,-272 388,-272 388,-423 388,-423 388,-429 382,-435 376,-435 376,-435 28,-435 28,-435 22,-435 16,-429 16,-423 16,-423 16,-272 16,-272 16,-266 22,-260 28,-260"/>
<text text-anchor="middle" x="39.5" y="-421.4" font-family="Sans-Serif" font-size="12.00" fill="#2d3436">Edge</text>
</g>
<g id="clust5" class="cluster">
<title>cluster_predictive analytics</title>
<path fill="#e5f5fd" stroke="#aeb6be" d="M428,-33C428,-33 709,-33 709,-33 715,-33 721,-39 721,-45 721,-45 721,-664 721,-664 721,-670 715,-676 709,-676 709,-676 428,-676 428,-676 422,-676 416,-670 416,-664 416,-664 416,-45 416,-45 416,-39 422,-33 428,-33"/>
<text text-anchor="middle" x="481.5" y="-662.4" font-family="Sans-Serif" font-size="12.00" fill="#2d3436">predictive analytics</text>
</g>
<g id="clust6" class="cluster">
<title>cluster_Cloud Computing</title>
<path fill="#ebf3e7" stroke="#aeb6be" d="M436,-41C436,-41 701,-41 701,-41 707,-41 713,-47 713,-53 713,-53 713,-635 713,-635 713,-641 707,-647 701,-647 701,-647 436,-647 436,-647 430,-647 424,-641 424,-635 424,-635 424,-53 424,-53 424,-47 430,-41 436,-41"/>
<text text-anchor="middle" x="483.5" y="-633.4" font-family="Sans-Serif" font-size="12.00" fill="#2d3436">Cloud Computing</text>
</g>
<g id="clust7" class="cluster">
<title>cluster_AZURE</title>
<path fill="#ece8f6" stroke="#aeb6be" d="M444,-443C444,-443 693,-443 693,-443 699,-443 705,-449 705,-455 705,-455 705,-606 705,-606 705,-612 699,-618 693,-618 693,-618 444,-618 444,-618 438,-618 432,-612 432,-606 432,-606 432,-455 432,-455 432,-449 438,-443 444,-443"/>
<text text-anchor="middle" x="461" y="-604.4" font-family="Sans-Serif" font-size="12.00" fill="#2d3436">AZURE</text>
</g>
<g id="clust8" class="cluster">
<title>cluster_AWS</title>
<path fill="#ece8f6" stroke="#aeb6be" d="M444,-260C444,-260 693,-260 693,-260 699,-260 705,-266 705,-272 705,-272 705,-423 705,-423 705,-429 699,-435 693,-435 693,-435 444,-435 444,-435 438,-435 432,-429 432,-423 432,-423 432,-272 432,-272 432,-266 438,-260 444,-260"/>
<text text-anchor="middle" x="454" y="-421.4" font-family="Sans-Serif" font-size="12.00" fill="#2d3436">AWS</text>
</g>
<g id="clust9" class="cluster">
<title>cluster_IBM</title>
<path fill="#ece8f6" stroke="#aeb6be" d="M444,-49C444,-49 693,-49 693,-49 699,-49 705,-55 705,-61 705,-61 705,-240 705,-240 705,-246 699,-252 693,-252 693,-252 444,-252 444,-252 438,-252 432,-246 432,-240 432,-240 432,-61 432,-61 432,-55 438,-49 444,-49"/>
<text text-anchor="middle" x="451.5" y="-238.4" font-family="Sans-Serif" font-size="12.00" fill="#2d3436">IBM</text>
</g>
<!-- e5fa8197188a474faef117b5d786db2b -->
<g id="node1" class="node">
<title>e5fa8197188a474faef117b5d786db2b</title>
<image xlink:href="./sense.png" width="101px" height="101px" preserveAspectRatio="xMinYMin meet" x="24" y="-627.5"/>
<text text-anchor="middle" x="74.5" y="-511.6" font-family="Sans-Serif" font-size="13.00" fill="#2d3436">Refrigeration</text>
<text text-anchor="middle" x="74.5" y="-497.6" font-family="Sans-Serif" font-size="13.00" fill="#2d3436"> System</text>
<text text-anchor="middle" x="74.5" y="-483.6" font-family="Sans-Serif" font-size="13.00" fill="#2d3436"> Variables</text>
</g>
<!-- 996142af649541668e1190e411902b0c -->
<g id="node4" class="node">
<title>996142af649541668e1190e411902b0c</title>
<image xlink:href="./chainb.png" width="101px" height="101px" preserveAspectRatio="xMinYMin meet" x="279" y="-387.5"/>
<text text-anchor="middle" x="329.5" y="-272.1" font-family="Sans-Serif" font-size="13.00" fill="#2d3436">Blockchain</text>
</g>
<!-- e5fa8197188a474faef117b5d786db2b&#45;&gt;996142af649541668e1190e411902b0c -->
<g id="edge11" class="edge">
<title>e5fa8197188a474faef117b5d786db2b&#45;&gt;996142af649541668e1190e411902b0c</title>
<path fill="none" stroke="blue" d="M125.13,-498.08C189.96,-498.08 294,-498.08 294,-498.08 294,-498.08 294,-415.78 294,-415.78"/>
<polygon fill="blue" stroke="blue" points="297.5,-415.78 294,-405.78 290.5,-415.78 297.5,-415.78"/>
</g>
<!-- e5fa8197188a474faef117b5d786db2b&#45;&gt;996142af649541668e1190e411902b0c -->
<g id="edge12" class="edge">
<title>e5fa8197188a474faef117b5d786db2b&#45;&gt;996142af649541668e1190e411902b0c</title>
<path fill="none" stroke="blue" d="M125.17,-516.17C193.84,-516.17 308,-516.17 308,-516.17 308,-516.17 308,-415.5 308,-415.5"/>
<polygon fill="blue" stroke="blue" points="311.5,-415.5 308,-405.5 304.5,-415.5 311.5,-415.5"/>
<text text-anchor="middle" x="202" y="-650.6" font-family="Sans-Serif" font-size="13.00" fill="#2d3436">data collection</text>
<text text-anchor="middle" x="202" y="-636.6" font-family="Sans-Serif" font-size="13.00" fill="#2d3436"> pipeline</text>
</g>
<!-- e5fa8197188a474faef117b5d786db2b&#45;&gt;996142af649541668e1190e411902b0c -->
<g id="edge13" class="edge">
<title>e5fa8197188a474faef117b5d786db2b&#45;&gt;996142af649541668e1190e411902b0c</title>
<path fill="none" stroke="blue" d="M125.09,-534.25C197.74,-534.25 323,-534.25 323,-534.25 323,-534.25 323,-415.71 323,-415.71"/>
<polygon fill="blue" stroke="blue" points="326.5,-415.71 323,-405.71 319.5,-415.71 326.5,-415.71"/>
</g>
<!-- e5fa8197188a474faef117b5d786db2b&#45;&gt;996142af649541668e1190e411902b0c -->
<g id="edge14" class="edge">
<title>e5fa8197188a474faef117b5d786db2b&#45;&gt;996142af649541668e1190e411902b0c</title>
<path fill="none" stroke="blue" d="M125.11,-552.33C201.39,-552.33 337,-552.33 337,-552.33 337,-552.33 337,-415.72 337,-415.72"/>
<polygon fill="blue" stroke="blue" points="340.5,-415.72 337,-405.72 333.5,-415.72 340.5,-415.72"/>
</g>
<!-- e5fa8197188a474faef117b5d786db2b&#45;&gt;996142af649541668e1190e411902b0c -->
<g id="edge15" class="edge">
<title>e5fa8197188a474faef117b5d786db2b&#45;&gt;996142af649541668e1190e411902b0c</title>
<path fill="none" stroke="blue" d="M125.08,-570.42C205.12,-570.42 352,-570.42 352,-570.42 352,-570.42 352,-415.77 352,-415.77"/>
<polygon fill="blue" stroke="blue" points="355.5,-415.77 352,-405.77 348.5,-415.77 355.5,-415.77"/>
</g>
<!-- ef8242d2a13447f89123cf08d67307d4 -->
<g id="node2" class="node">
<title>ef8242d2a13447f89123cf08d67307d4</title>
<image xlink:href="./dashi.png" width="101px" height="101px" preserveAspectRatio="xMinYMin meet" x="757" y="-387.5"/>
<text text-anchor="middle" x="807.5" y="-272.1" font-family="Sans-Serif" font-size="13.00" fill="#2d3436">Dashboard BI</text>
</g>
<!-- 3c9a49eae6c4452e9c55d69d5f3b43aa -->
<g id="node3" class="node">
<title>3c9a49eae6c4452e9c55d69d5f3b43aa</title>
<image xlink:href="/home/eklm/.local/lib/python3.10/site-packages/resources/onprem/compute/server.png" width="101px" height="101px" preserveAspectRatio="xMinYMin meet" x="24" y="-387.5"/>
<text text-anchor="middle" x="74.5" y="-272.1" font-family="Sans-Serif" font-size="13.00" fill="#2d3436">DataBase</text>
</g>
<!-- 3c9a49eae6c4452e9c55d69d5f3b43aa&#45;&gt;996142af649541668e1190e411902b0c -->
<g id="edge1" class="edge">
<title>3c9a49eae6c4452e9c55d69d5f3b43aa&#45;&gt;996142af649541668e1190e411902b0c</title>
<path fill="none" stroke="brown" stroke-dasharray="5,2" d="M135.18,-337C135.18,-337 278.91,-337 278.91,-337"/>
<polygon fill="brown" stroke="brown" points="135.18,-333.5 125.18,-337 135.18,-340.5 135.18,-333.5"/>
</g>
<!-- c5a845efa3f4430bb8481144dc774175 -->
<g id="node5" class="node">
<title>c5a845efa3f4430bb8481144dc774175</title>
<image xlink:href="/home/eklm/.local/lib/python3.10/site-packages/resources/azure/iot/iot-hub.png" width="101px" height="101px" preserveAspectRatio="xMinYMin meet" x="440" y="-570.5"/>
<text text-anchor="middle" x="490.5" y="-455.1" font-family="Sans-Serif" font-size="13.00" fill="#2d3436">Azure IoT Hub</text>
</g>
<!-- 996142af649541668e1190e411902b0c&#45;&gt;c5a845efa3f4430bb8481144dc774175 -->
<g id="edge4" class="edge">
<title>996142af649541668e1190e411902b0c&#45;&gt;c5a845efa3f4430bb8481144dc774175</title>
<path fill="none" stroke="#7b8894" d="M366,-405.52C366,-436.27 366,-465.75 366,-465.75 366,-465.75 429.86,-465.75 429.86,-465.75"/>
<polygon fill="#7b8894" stroke="#7b8894" points="429.86,-469.25 439.86,-465.75 429.86,-462.25 429.86,-469.25"/>
</g>
<!-- 402f21a425fc4e95bdef14a8729a96eb -->
<g id="node7" class="node">
<title>402f21a425fc4e95bdef14a8729a96eb</title>
<image xlink:href="/home/eklm/.local/lib/python3.10/site-packages/resources/aws/iot/iot-core.png" width="101px" height="101px" preserveAspectRatio="xMinYMin meet" x="440" y="-387.5"/>
<text text-anchor="middle" x="490.5" y="-272.1" font-family="Sans-Serif" font-size="13.00" fill="#2d3436">AWS IoT Core</text>
</g>
<!-- 996142af649541668e1190e411902b0c&#45;&gt;402f21a425fc4e95bdef14a8729a96eb -->
<g id="edge7" class="edge">
<title>996142af649541668e1190e411902b0c&#45;&gt;402f21a425fc4e95bdef14a8729a96eb</title>
<path fill="none" stroke="#7b8894" d="M380.44,-337C380.44,-337 429.89,-337 429.89,-337"/>
<polygon fill="#7b8894" stroke="#7b8894" points="429.89,-340.5 439.89,-337 429.89,-333.5 429.89,-340.5"/>
</g>
<!-- fb7c6e9dae934d31bde84f9985aacc8e -->
<g id="node9" class="node">
<title>fb7c6e9dae934d31bde84f9985aacc8e</title>
<image xlink:href="/home/eklm/.local/lib/python3.10/site-packages/resources/ibm/applications/iot-application.png" width="101px" height="101px" preserveAspectRatio="xMinYMin meet" x="440" y="-190.5"/>
<text text-anchor="middle" x="490.5" y="-74.6" font-family="Sans-Serif" font-size="13.00" fill="#2d3436">IBM IoT</text>
<text text-anchor="middle" x="490.5" y="-60.6" font-family="Sans-Serif" font-size="13.00" fill="#2d3436"> SOLUTION</text>
</g>
<!-- 996142af649541668e1190e411902b0c&#45;&gt;fb7c6e9dae934d31bde84f9985aacc8e -->
<g id="edge10" class="edge">
<title>996142af649541668e1190e411902b0c&#45;&gt;fb7c6e9dae934d31bde84f9985aacc8e</title>
<path fill="none" stroke="#7b8894" d="M330,-268.38C330,-211.52 330,-140 330,-140 330,-140 429.72,-140 429.72,-140"/>
<polygon fill="#7b8894" stroke="#7b8894" points="429.72,-143.5 439.72,-140 429.72,-136.5 429.72,-143.5"/>
</g>
<!-- ece5bf1053a24ff686db557256840f68 -->
<g id="node6" class="node">
<title>ece5bf1053a24ff686db557256840f68</title>
<image xlink:href="/home/eklm/.local/lib/python3.10/site-packages/resources/azure/ml/batch-ai.png" width="101px" height="101px" preserveAspectRatio="xMinYMin meet" x="596" y="-570.5"/>
<text text-anchor="middle" x="646.5" y="-455.1" font-family="Sans-Serif" font-size="13.00" fill="#2d3436">Azure Batch AI</text>
</g>
<!-- c5a845efa3f4430bb8481144dc774175&#45;&gt;ece5bf1053a24ff686db557256840f68 -->
<g id="edge2" class="edge">
<title>c5a845efa3f4430bb8481144dc774175&#45;&gt;ece5bf1053a24ff686db557256840f68</title>
<path fill="none" stroke="brown" stroke-dasharray="5,2" d="M541.15,-520C558.68,-520 578.31,-520 595.84,-520"/>
</g>
<!-- ece5bf1053a24ff686db557256840f68&#45;&gt;ef8242d2a13447f89123cf08d67307d4 -->
<g id="edge3" class="edge">
<title>ece5bf1053a24ff686db557256840f68&#45;&gt;ef8242d2a13447f89123cf08d67307d4</title>
<path fill="none" stroke="#7b8894" d="M697.16,-520C744.52,-520 808,-520 808,-520 808,-520 808,-415.66 808,-415.66"/>
<polygon fill="#7b8894" stroke="#7b8894" points="811.5,-415.66 808,-405.66 804.5,-415.66 811.5,-415.66"/>
</g>
<!-- 05839abea464408980bd1d661e1bd0ac -->
<g id="node8" class="node">
<title>05839abea464408980bd1d661e1bd0ac</title>
<image xlink:href="/home/eklm/.local/lib/python3.10/site-packages/resources/aws/ml/machine-learning.png" width="101px" height="101px" preserveAspectRatio="xMinYMin meet" x="596" y="-387.5"/>
<text text-anchor="middle" x="646.5" y="-272.1" font-family="Sans-Serif" font-size="13.00" fill="#2d3436">AWS ML</text>
</g>
<!-- 402f21a425fc4e95bdef14a8729a96eb&#45;&gt;05839abea464408980bd1d661e1bd0ac -->
<g id="edge5" class="edge">
<title>402f21a425fc4e95bdef14a8729a96eb&#45;&gt;05839abea464408980bd1d661e1bd0ac</title>
<path fill="none" stroke="brown" stroke-dasharray="5,2" d="M541.15,-337C558.68,-337 578.31,-337 595.84,-337"/>
</g>
<!-- 05839abea464408980bd1d661e1bd0ac&#45;&gt;ef8242d2a13447f89123cf08d67307d4 -->
<g id="edge6" class="edge">
<title>05839abea464408980bd1d661e1bd0ac&#45;&gt;ef8242d2a13447f89123cf08d67307d4</title>
<path fill="none" stroke="#7b8894" d="M697.44,-337C697.44,-337 746.89,-337 746.89,-337"/>
<polygon fill="#7b8894" stroke="#7b8894" points="746.89,-340.5 756.89,-337 746.89,-333.5 746.89,-340.5"/>
</g>
<!-- 73c6e4ab3ae646bc9bc72c7d8e88051a -->
<g id="node10" class="node">
<title>73c6e4ab3ae646bc9bc72c7d8e88051a</title>
<image xlink:href="/home/eklm/.local/lib/python3.10/site-packages/resources/ibm/analytics/analytics.png" width="101px" height="101px" preserveAspectRatio="xMinYMin meet" x="596" y="-197.5"/>
<text text-anchor="middle" x="646.5" y="-82.1" font-family="Sans-Serif" font-size="13.00" fill="#2d3436">IBM Analytics</text>
</g>
<!-- fb7c6e9dae934d31bde84f9985aacc8e&#45;&gt;73c6e4ab3ae646bc9bc72c7d8e88051a -->
<g id="edge8" class="edge">
<title>fb7c6e9dae934d31bde84f9985aacc8e&#45;&gt;73c6e4ab3ae646bc9bc72c7d8e88051a</title>
<path fill="none" stroke="brown" stroke-dasharray="5,2" d="M541.15,-147C558.68,-147 578.31,-147 595.84,-147"/>
</g>
<!-- 73c6e4ab3ae646bc9bc72c7d8e88051a&#45;&gt;ef8242d2a13447f89123cf08d67307d4 -->
<g id="edge9" class="edge">
<title>73c6e4ab3ae646bc9bc72c7d8e88051a&#45;&gt;ef8242d2a13447f89123cf08d67307d4</title>
<path fill="none" stroke="#7b8894" d="M697.16,-147C744.52,-147 808,-147 808,-147 808,-147 808,-258.41 808,-258.41"/>
<polygon fill="#7b8894" stroke="#7b8894" points="804.5,-258.41 808,-268.41 811.5,-258.41 804.5,-258.41"/>
</g>
</g>
</svg>
